<svg width="76" height="40" viewBox="0 0 76 40" fill="none" xmlns="http://www.w3.org/2000/svg">
<path d="M30.666 19.718C30.666 18.494 30.948 17.396 31.512 16.424C32.088 15.452 32.862 14.696 33.834 14.156C34.818 13.604 35.892 13.328 37.056 13.328C38.388 13.328 39.57 13.658 40.602 14.318C41.646 14.966 42.402 15.89 42.87 17.09H40.404C40.08 16.43 39.63 15.938 39.054 15.614C38.478 15.29 37.812 15.128 37.056 15.128C36.228 15.128 35.49 15.314 34.842 15.686C34.194 16.058 33.684 16.592 33.312 17.288C32.952 17.984 32.772 18.794 32.772 19.718C32.772 20.642 32.952 21.452 33.312 22.148C33.684 22.844 34.194 23.384 34.842 23.768C35.49 24.14 36.228 24.326 37.056 24.326C37.812 24.326 38.478 24.164 39.054 23.84C39.63 23.516 40.08 23.024 40.404 22.364H42.87C42.402 23.564 41.646 24.488 40.602 25.136C39.57 25.784 38.388 26.108 37.056 26.108C35.88 26.108 34.806 25.838 33.834 25.298C32.862 24.746 32.088 23.984 31.512 23.012C30.948 22.04 30.666 20.942 30.666 19.718ZM44.5429 20.996C44.5429 20 44.7469 19.118 45.1549 18.35C45.5749 17.582 46.1389 16.988 46.8469 16.568C47.5669 16.136 48.3589 15.92 49.2229 15.92C50.0029 15.92 50.6809 16.076 51.2569 16.388C51.8449 16.688 52.3129 17.066 52.6609 17.522V16.082H54.7309V26H52.6609V24.524C52.3129 24.992 51.8389 25.382 51.2389 25.694C50.6389 26.006 49.9549 26.162 49.1869 26.162C48.3349 26.162 47.5549 25.946 46.8469 25.514C46.1389 25.07 45.5749 24.458 45.1549 23.678C44.7469 22.886 44.5429 21.992 44.5429 20.996ZM52.6609 21.032C52.6609 20.348 52.5169 19.754 52.2289 19.25C51.9529 18.746 51.5869 18.362 51.1309 18.098C50.6749 17.834 50.1829 17.702 49.6549 17.702C49.1269 17.702 48.6349 17.834 48.1789 18.098C47.7229 18.35 47.3509 18.728 47.0629 19.232C46.7869 19.724 46.6489 20.312 46.6489 20.996C46.6489 21.68 46.7869 22.28 47.0629 22.796C47.3509 23.312 47.7229 23.708 48.1789 23.984C48.6469 24.248 49.1389 24.38 49.6549 24.38C50.1829 24.38 50.6749 24.248 51.1309 23.984C51.5869 23.72 51.9529 23.336 52.2289 22.832C52.5169 22.316 52.6609 21.716 52.6609 21.032ZM59.4331 17.522C59.7331 17.018 60.1291 16.628 60.6211 16.352C61.1251 16.064 61.7191 15.92 62.4031 15.92V18.044H61.8811C61.0771 18.044 60.4651 18.248 60.0451 18.656C59.6371 19.064 59.4331 19.772 59.4331 20.78V26H57.3811V16.082H59.4331V17.522ZM63.5603 20.996C63.5603 20 63.7643 19.118 64.1723 18.35C64.5923 17.582 65.1563 16.988 65.8643 16.568C66.5843 16.136 67.3823 15.92 68.2583 15.92C68.9063 15.92 69.5423 16.064 70.1663 16.352C70.8023 16.628 71.3063 17 71.6783 17.468V12.68H73.7483V26H71.6783V24.506C71.3423 24.986 70.8743 25.382 70.2743 25.694C69.6863 26.006 69.0083 26.162 68.2403 26.162C67.3763 26.162 66.5843 25.946 65.8643 25.514C65.1563 25.07 64.5923 24.458 64.1723 23.678C63.7643 22.886 63.5603 21.992 63.5603 20.996ZM71.6783 21.032C71.6783 20.348 71.5343 19.754 71.2463 19.25C70.9703 18.746 70.6043 18.362 70.1483 18.098C69.6923 17.834 69.2003 17.702 68.6723 17.702C68.1443 17.702 67.6523 17.834 67.1963 18.098C66.7403 18.35 66.3683 18.728 66.0803 19.232C65.8043 19.724 65.6663 20.312 65.6663 20.996C65.6663 21.68 65.8043 22.28 66.0803 22.796C66.3683 23.312 66.7403 23.708 67.1963 23.984C67.6643 24.248 68.1563 24.38 68.6723 24.38C69.2003 24.38 69.6923 24.248 70.1483 23.984C70.6043 23.72 70.9703 23.336 71.2463 22.832C71.5343 22.316 71.6783 21.716 71.6783 21.032Z" fill="black"/>
<path d="M21 12H3C1.89543 12 1 12.8954 1 14V26C1 27.1046 1.89543 28 3 28H21C22.1046 28 23 27.1046 23 26V14C23 12.8954 22.1046 12 21 12Z" stroke="black" stroke-width="2" stroke-linecap="round" stroke-linejoin="round"/>
<path d="M1 18H23" stroke="black" stroke-width="2" stroke-linecap="round" stroke-linejoin="round"/>
</svg>
