<svg width="67" height="27" viewBox="0 0 67 27" fill="none" xmlns="http://www.w3.org/2000/svg">
<path d="M59.6709 17.21H59.7178L63.5889 7.67676H66.3096L57.9453 26.79H55.3643L58.4736 20.1045L52.9854 7.67676H55.7061L59.6709 17.21ZM46.5801 7.24316C48.43 7.24325 49.8912 7.73893 50.9639 8.71387C52.0365 9.68888 52.5654 11.0508 52.5654 12.7686V20.9551H50.1709V19.1133H50.0625C49.0209 20.6299 47.6524 21.3886 45.9268 21.3887C44.4654 21.3887 43.2216 20.9554 42.2422 20.0889C41.2783 19.2841 40.7336 18.0924 40.7646 16.8389C40.7646 15.4615 41.2934 14.3779 42.335 13.5576C43.3766 12.7374 44.7763 12.335 46.5176 12.335C48.01 12.335 49.2226 12.6135 50.1865 13.1396V12.5674C50.1865 11.7162 49.8131 10.9107 49.1602 10.3535C48.4918 9.76569 47.6369 9.44052 46.751 9.44043C45.3518 9.44043 44.2479 10.029 43.4395 11.2051L41.2314 9.82812C42.413 8.11023 44.2014 7.24316 46.5801 7.24316ZM34.7178 1.54785C36.3191 1.5169 37.8738 2.12105 39.0088 3.23535C41.2785 5.34016 41.4189 8.88419 39.2891 11.1592L39.0088 11.4375C37.8428 12.5363 36.4124 13.0937 34.7178 13.0938H30.582V20.9551H28.0791V1.54785H34.7178ZM46.9062 14.3477C45.8957 14.3477 45.0406 14.5954 44.3564 15.0752C43.688 15.555 43.3457 16.1583 43.3457 16.8857C43.3457 17.5358 43.6568 18.1393 44.1699 18.5107C44.7296 18.9441 45.4136 19.1765 46.1133 19.1611C47.1706 19.1611 48.1814 18.7429 48.9277 18C49.7518 17.2262 50.1718 16.3131 50.1719 15.2607C49.3944 14.6416 48.3057 14.3322 46.9062 14.3477ZM30.583 10.71H34.7812C35.7142 10.7409 36.6164 10.3697 37.2539 9.7041C38.5601 8.35749 38.5286 6.19079 37.1758 4.89062C36.5382 4.27149 35.6831 3.93066 34.7812 3.93066H30.583V10.71Z" fill="#3C4043"/>
<path d="M21.9414 11.3917C21.9414 10.6332 21.8792 9.87479 21.7548 9.13184H11.1982V13.4193H17.2461C16.9973 14.7969 16.1889 16.0352 15.0073 16.8091V19.5952H18.6143C20.7287 17.6604 21.9414 14.7969 21.9414 11.3917Z" fill="#4285F4"/>
<path d="M11.1971 22.2877C14.2132 22.2877 16.763 21.2971 18.6131 19.5944L15.0061 16.8084C13.9955 17.4894 12.7051 17.8764 11.1971 17.8764C8.27418 17.8764 5.80217 15.9106 4.91598 13.2793H1.2002V16.1583C3.09695 19.9195 6.96821 22.2877 11.1971 22.2877Z" fill="#34A853"/>
<path d="M4.91759 13.28C4.4511 11.9025 4.4511 10.4011 4.91759 9.00802V6.14453H1.20121C-0.400404 9.28663 -0.400404 13.0014 1.20121 16.1435L4.91759 13.28Z" fill="#FBBC04"/>
<path d="M11.197 4.41199C12.7984 4.38104 14.3376 4.98469 15.4881 6.08365L18.6908 2.89512C16.6541 1.00676 13.98 -0.030283 11.197 0.000673631C6.96821 0.000673631 3.09695 2.38433 1.2002 6.14556L4.91598 9.02453C5.80217 6.37774 8.27417 4.41199 11.197 4.41199Z" fill="#EA4335"/>
</svg>
