<svg width="36" height="36" viewBox="0 0 36 36" fill="none" xmlns="http://www.w3.org/2000/svg">
<circle cx="18" cy="18" r="18" fill="#5E5DAE"/>
<g clip-path="url(#clip0_1823_501)">
<path d="M24.8577 11.1426H9.42913C8.48236 11.1426 7.71484 11.9101 7.71484 12.8569V23.1426C7.71484 24.0894 8.48236 24.8569 9.42913 24.8569H24.8577C25.8045 24.8569 26.572 24.0894 26.572 23.1426V12.8569C26.572 11.9101 25.8045 11.1426 24.8577 11.1426Z" stroke="white" stroke-width="2" stroke-linecap="round" stroke-linejoin="round"/>
<path d="M7.71484 16.2852H26.572" stroke="white" stroke-width="2" stroke-linecap="round" stroke-linejoin="round"/>
</g>
<rect width="18" height="9" transform="translate(13 20)" fill="#5E5DAE"/>
<path d="M23.5633 21.7715H25.2286C25.593 21.7715 25.954 21.8356 26.2907 21.9603C26.6274 22.0849 26.9334 22.2676 27.1911 22.4979C27.4488 22.7283 27.6533 23.0017 27.7928 23.3026C27.9322 23.6035 28.004 23.926 28.004 24.2518C28.004 24.5775 27.9322 24.9 27.7928 25.2009C27.6533 25.5018 27.4488 25.7753 27.1911 26.0056C26.9334 26.2359 26.6274 26.4186 26.2907 26.5432C25.954 26.6679 25.593 26.732 25.2286 26.732H23.5633M20.2327 26.732H18.5675C18.203 26.732 17.8421 26.6679 17.5053 26.5432C17.1686 26.4186 16.8626 26.2359 16.6049 26.0056C16.0844 25.5404 15.792 24.9096 15.792 24.2518C15.792 23.5939 16.0844 22.9631 16.6049 22.4979C17.1254 22.0328 17.8314 21.7715 18.5675 21.7715H20.2327" stroke="white" stroke-width="2" stroke-linecap="round" stroke-linejoin="round"/>
<path d="M19.6787 24.251H24.1195" stroke="white" stroke-width="2" stroke-linecap="round" stroke-linejoin="round"/>
<defs>
<clipPath id="clip0_1823_501">
<rect width="20.5714" height="20.5714" fill="white" transform="translate(6.85742 7.71387)"/>
</clipPath>
</defs>
</svg>
