<svg width="36" height="36" viewBox="0 0 36 36" fill="none" xmlns="http://www.w3.org/2000/svg">
<circle cx="18" cy="18" r="18" fill="#5E5DAE"/>
<path d="M15.3333 11.375H12.9583C12.5384 11.375 12.1357 11.5418 11.8387 11.8387C11.5418 12.1357 11.375 12.5384 11.375 12.9583V15.3333M25.625 15.3333V12.9583C25.625 12.5384 25.4582 12.1357 25.1613 11.8387C24.8643 11.5418 24.4616 11.375 24.0417 11.375H21.6667M21.6667 25.625H24.0417C24.4616 25.625 24.8643 25.4582 25.1613 25.1613C25.4582 24.8643 25.625 24.4616 25.625 24.0417V21.6667M11.375 21.6667V24.0417C11.375 24.4616 11.5418 24.8643 11.8387 25.1613C12.1357 25.4582 12.5384 25.625 12.9583 25.625H15.3333" stroke="white" stroke-width="2" stroke-linecap="round" stroke-linejoin="round"/>
</svg>
