<svg width="36" height="36" viewBox="0 0 36 36" fill="none" xmlns="http://www.w3.org/2000/svg">
<circle cx="18" cy="18" r="18" fill="#5E5DAE"/>
<path d="M11.9992 22.2852H11.142C10.6874 22.2852 10.2513 22.1045 9.92984 21.7831C9.60835 21.4616 9.42773 21.0255 9.42773 20.5709V11.9994C9.42773 11.5448 9.60835 11.1087 9.92984 10.7873C10.2513 10.4658 10.6874 10.2852 11.142 10.2852H24.8563C25.311 10.2852 25.747 10.4658 26.0685 10.7873C26.39 11.1087 26.5706 11.5448 26.5706 11.9994V20.5709C26.5706 21.0255 26.39 21.4616 26.0685 21.7831C25.747 22.1045 25.311 22.2852 24.8563 22.2852H23.9992" stroke="white" stroke-width="2" stroke-linecap="round" stroke-linejoin="round"/>
<path d="M17.9996 20.5713L22.2853 25.7141H13.7139L17.9996 20.5713Z" stroke="white" stroke-width="2" stroke-linecap="round" stroke-linejoin="round"/>
</svg>
