<svg width="36" height="36" viewBox="0 0 36 36" fill="none" xmlns="http://www.w3.org/2000/svg">
<circle cx="18" cy="18" r="18" fill="#5E5DAE"/>
<path d="M11 23H10C9.46957 23 8.96086 22.7893 8.58579 22.4142C8.21071 22.0391 8 21.5304 8 21V11C8 10.4696 8.21071 9.96086 8.58579 9.58579C8.96086 9.21071 9.46957 9 10 9H26C26.5304 9 27.0391 9.21071 27.4142 9.58579C27.7893 9.96086 28 10.4696 28 11V21C28 21.5304 27.7893 22.0391 27.4142 22.4142C27.0391 22.7893 26.5304 23 26 23H25" stroke="white" stroke-width="2" stroke-linecap="round" stroke-linejoin="round"/>
<path d="M18 21L23 27H13L18 21Z" stroke="white" stroke-width="2" stroke-linecap="round" stroke-linejoin="round"/>
</svg>
